<svg width="158" height="64" viewBox="0 0 158 64" fill="none" xmlns="http://www.w3.org/2000/svg">
<rect width="158" height="64" rx="4" fill="#FF4B1F"/>
<g clip-path="url(#clip0)">
<path d="M66.4853 39.6705H66.4258C65.1766 36.0478 64.8494 35.3878 59.0347 21.4398H55.1086L64.3141 42.5598H68.4186L77.7579 21.4398H73.9805C72.2554 25.4878 67.4222 36.6785 66.4853 39.6705Z" fill="white"/>
<path d="M83.6024 21.4398H80.0332V42.5452H83.6024V21.4398Z" fill="white"/>
<path d="M96.9273 21.4398C90.9787 21.4398 87.3501 24.2412 87.3501 31.0025V42.5598H90.8895V31.0318C90.8895 25.9718 93.15 24.2998 96.8083 24.2998C99.8867 24.2998 102.965 25.7225 102.965 31.0318V42.5598H106.534V30.7972C106.519 24.2412 102.757 21.4398 96.9273 21.4398Z" fill="white"/>
<path d="M113.881 21.4398H110.312V42.5452H113.881V21.4398Z" fill="white"/>
<path d="M116.156 24.3292H124.187V42.5598H127.711V24.3292H135.712V21.4398H116.156V24.3292Z" fill="white"/>
<path d="M141.556 21.4398H137.987V42.5452H141.556V21.4398Z" fill="white"/>
<path d="M43.866 21C36.2072 21 32.6232 26.72 32.4447 31.4867C32.4893 33.056 32.2216 34.948 31.255 36.5027C30.0058 38.5267 27.7602 39.7293 24.5182 39.7293H19.7742V24.2707C24.9495 24.2707 25.6633 24.1827 27.1653 24.5347C29.2325 25.0187 30.5263 26.1333 31.2996 27.38C31.7309 26.236 32.3109 25.136 33.0693 24.1387C31.6416 22.848 29.6786 21.8947 27.1653 21.5573C25.7972 21.396 25.8864 21.44 16.2051 21.44V42.56H25.1428C30.6601 42.56 35.1364 39.2893 36.0436 33.76H54.9898C56.0011 26.852 51.2422 21 43.866 21ZM36.2667 30.9147C36.5046 28.5093 38.0661 23.86 43.6726 23.86C50.2904 23.86 51.1976 29.8293 51.3166 30.9147C45.249 30.9147 58.8861 30.9147 36.2667 30.9147Z" fill="white"/>
<path d="M43.3158 40.1253C40.4902 39.9493 38.4974 38.5119 37.3523 36.4586C36.8913 37.6759 36.2667 38.7906 35.4785 39.7733C37.3523 41.6799 40.0292 42.8826 43.3158 42.9853C51.6884 43.1319 53.9786 37.0746 54.0678 36.8839L50.4541 36.2239C48.4464 40.2866 44.4014 40.1986 43.3158 40.1253Z" fill="white"/>
</g>
<defs>
<clipPath id="clip0">
<rect width="125.337" height="22" fill="white" transform="translate(16.2051 21)"/>
</clipPath>
</defs>
</svg>
